<?xml version="1.0" standalone="no"?>
<!DOCTYPE svg PUBLIC "-//W3C//DTD SVG 20010904//EN"
 "http://www.w3.org/TR/2001/REC-SVG-20010904/DTD/svg10.dtd">
<svg version="1.0" xmlns="http://www.w3.org/2000/svg"
 width="700.000000pt" height="300.000000pt" viewBox="0 0 700.000000 300.000000"
 preserveAspectRatio="xMidYMid meet">

<g transform="translate(0.000000,300.000000) scale(0.100000,-0.100000)"
fill="#000000" stroke="none">
<path d="M3637 2091 c-132 -5 -150 -8 -163 -25 -10 -15 -14 -54 -14 -150 0
-200 -1 -199 -103 83 -32 89 -36 91 -192 91 -117 0 -137 -2 -153 -18 -10 -10
-47 -103 -81 -208 -69 -206 -117 -340 -131 -365 -5 -9 -12 -49 -16 -88 -6 -70
-6 -73 22 -102 l28 -29 -37 0 c-33 0 -37 -3 -46 -37 -6 -21 -11 -41 -11 -45 0
-5 67 -8 149 -8 144 0 149 1 173 25 14 13 30 42 36 64 16 51 32 63 83 59 42
-3 43 -3 62 -61 30 -91 21 -89 405 -85 295 4 332 6 375 23 30 12 51 16 55 10
19 -26 57 -35 151 -35 91 0 100 2 123 25 14 13 30 42 36 64 16 51 32 63 83 59
42 -3 43 -4 61 -58 32 -95 5 -90 466 -90 258 0 410 4 423 10 62 34 66 186 7
244 -42 42 -62 46 -207 46 l-141 0 -1 43 c0 23 0 134 0 247 1 214 -6 276 -35
297 -12 9 -56 13 -136 13 -160 0 -158 2 -159 -167 -1 -205 0 -206 -102 76 -32
89 -36 91 -190 91 -91 0 -139 -4 -150 -12 -9 -7 -33 -58 -53 -112 -45 -129
-50 -136 -59 -105 -13 43 -56 134 -72 151 -41 46 -188 90 -287 86 -28 -1 -118
-4 -199 -7z m-359 -143 c12 -35 34 -101 51 -148 76 -216 154 -439 166 -477
l13 -43 -89 0 c-78 0 -89 2 -89 18 -1 9 -9 42 -20 72 l-19 55 -100 3 -100 3 6
32 c3 18 12 47 20 65 13 31 15 32 73 32 33 0 60 4 60 10 0 5 -6 27 -14 47 -7
21 -21 67 -31 103 -9 36 -23 79 -30 95 -15 34 -13 38 -45 -85 -12 -47 -26 -96
-30 -110 -5 -14 -18 -59 -30 -100 -35 -120 -43 -140 -58 -140 -10 0 -12 -7 -8
-25 7 -27 -2 -75 -13 -75 -4 0 -5 14 -3 31 3 24 1 30 -8 24 -7 -4 -16 -2 -21
6 -8 12 -11 12 -19 -1 -5 -8 -10 -11 -10 -6 0 6 -5 5 -12 -2 -14 -14 7 -43 27
-36 7 3 16 1 20 -5 4 -7 -13 -11 -50 -11 l-56 0 3 55 c2 47 5 54 20 49 10 -3
18 -1 18 5 0 6 -7 11 -15 11 -8 0 -15 7 -15 15 0 14 20 66 30 75 13 13 30 52
25 59 -3 5 2 22 10 37 8 16 15 36 15 44 0 7 28 96 61 197 l61 183 93 0 92 0
21 -62z m417 -143 c0 -194 -1 -200 -21 -210 -19 -9 -20 -13 -9 -29 8 -10 18
-15 24 -11 8 4 11 -37 11 -132 l0 -138 -54 -2 c-41 -2 -56 1 -60 13 -3 8 -10
12 -16 9 -6 -4 -8 -11 -5 -16 4 -5 1 -9 -5 -9 -8 0 -9 10 -5 30 4 19 3 30 -4
30 -7 0 -11 39 -11 115 0 94 3 117 15 121 8 4 15 17 15 30 0 25 -15 33 -23 12
-3 -7 -5 61 -6 151 0 92 4 172 10 182 6 13 6 19 -1 19 -5 0 -10 9 -10 20 0 19
5 21 78 18 l77 -3 0 -200z m305 174 c49 -26 84 -72 100 -128 5 -20 10 -111 10
-202 0 -187 -10 -233 -63 -292 -44 -49 -93 -66 -208 -74 l-99 -6 0 48 c0 38 3
46 12 37 7 -7 15 -12 20 -12 11 0 -3 33 -20 48 -14 10 -13 12 6 12 13 0 22 -6
22 -15 0 -8 7 -15 16 -15 11 0 14 5 10 16 -5 14 -1 16 23 11 36 -7 83 14 105
48 13 20 16 55 16 194 l0 169 -29 31 c-29 31 -36 33 -133 34 l-48 0 0 65 0 65
108 -5 c91 -4 115 -8 152 -29z m568 -31 c12 -35 34 -101 51 -148 76 -216 154
-439 166 -477 l13 -43 -89 0 c-78 0 -89 2 -89 18 -1 9 -9 42 -20 72 l-19 55
-100 3 -100 3 6 32 c3 18 12 47 19 65 13 31 15 32 73 32 34 0 61 2 61 5 0 2
-6 24 -14 47 -7 24 -21 72 -31 108 -9 36 -23 79 -30 95 -15 34 -13 38 -45 -85
-12 -47 -26 -96 -30 -110 -5 -14 -18 -59 -30 -100 -35 -120 -43 -140 -58 -140
-10 0 -12 -7 -8 -25 7 -27 -2 -75 -13 -75 -4 0 -5 14 -3 31 3 24 1 30 -8 24
-7 -4 -16 -2 -21 6 -8 12 -11 12 -19 -1 -5 -8 -10 -11 -10 -6 0 6 -5 5 -12 -2
-14 -14 7 -43 27 -36 7 3 16 1 20 -5 4 -7 -13 -11 -50 -11 l-56 0 3 53 c2 46
5 53 20 49 10 -2 18 1 18 7 0 6 -7 11 -15 11 -8 0 -15 7 -15 15 0 14 20 66 30
75 13 13 30 52 25 59 -5 10 21 68 36 76 5 4 9 12 9 18 0 7 -4 6 -10 -3 -19
-29 -9 6 51 187 l61 183 93 0 92 0 21 -62z m422 38 c0 -13 -6 -27 -12 -30 -10
-5 -10 -7 0 -12 10 -4 12 -43 11 -159 -1 -152 -1 -154 -26 -170 -24 -16 -27
-43 -4 -37 6 1 11 -5 11 -13 0 -8 4 -15 8 -15 5 0 9 -52 9 -116 1 -92 -2 -117
-14 -121 -8 -3 -12 -12 -8 -20 4 -12 -2 -14 -32 -11 -21 3 -47 9 -57 13 -14 6
-17 5 -12 -3 4 -8 0 -12 -11 -12 -15 0 -19 8 -19 45 0 25 4 45 8 45 5 0 4 9
-2 19 -15 30 -12 48 10 54 27 7 25 27 -2 28 -22 1 -20 2 22 15 13 5 13 6 0 14
-13 9 -13 10 0 10 18 1 60 34 60 49 0 17 -19 22 -40 11 -15 -8 -25 -7 -41 3
-15 11 -17 16 -7 21 10 5 10 7 1 12 -10 4 -13 55 -13 205 l0 199 80 0 c78 0
80 -1 80 -24z m-1132 -208 c8 -8 12 -52 12 -133 0 -108 -2 -124 -19 -139 -13
-11 -27 -15 -40 -11 -20 6 -21 14 -21 139 0 135 5 156 40 156 9 0 21 -5 28
-12z m1002 -240 c0 -13 -23 -5 -28 10 -2 7 2 10 12 6 9 -3 16 -11 16 -16z
m292 -149 c12 -6 18 -6 18 1 0 6 33 10 84 10 65 0 85 -3 90 -15 3 -8 1 -15 -5
-15 -5 0 -15 -13 -20 -29 -9 -24 -22 -35 -72 -59 -4 -2 -6 2 -5 9 2 8 -7 15
-20 17 -13 2 -26 10 -29 18 -3 8 -9 14 -13 14 -12 0 -20 -44 -9 -50 5 -4 -22
-7 -61 -8 -76 -2 -83 4 -54 46 14 20 14 23 0 28 -9 3 -16 14 -16 23 0 14 9 18
47 19 26 0 56 -4 65 -9z m220 -84 c-2 -14 -8 -25 -13 -25 -10 0 -11 7 -3 37 8
31 23 20 16 -12z"/>
<path d="M2990 1534 c0 -8 5 -12 10 -9 6 3 10 10 10 16 0 5 -4 9 -10 9 -5 0
-10 -7 -10 -16z"/>
<path d="M2910 1441 c0 -6 5 -13 10 -16 6 -3 10 1 10 9 0 9 -4 16 -10 16 -5 0
-10 -4 -10 -9z"/>
<path d="M3580 1856 c0 -9 -5 -16 -11 -16 -8 0 -8 -5 1 -15 7 -8 16 -15 20
-15 15 0 18 39 4 51 -11 9 -14 8 -14 -5z"/>
<path d="M3645 1630 c3 -5 10 -10 16 -10 5 0 9 5 9 10 0 6 -7 10 -16 10 -8 0
-12 -4 -9 -10z"/>
<path d="M3625 1600 c3 -5 8 -10 11 -10 2 0 4 5 4 10 0 6 -5 10 -11 10 -5 0
-7 -4 -4 -10z"/>
<path d="M3580 1541 c0 -6 5 -13 10 -16 6 -3 10 1 10 9 0 9 -4 16 -10 16 -5 0
-10 -4 -10 -9z"/>
<path d="M3580 1460 c0 -11 5 -20 10 -20 6 0 10 9 10 20 0 11 -4 20 -10 20 -5
0 -10 -9 -10 -20z"/>
<path d="M3655 1450 c-3 -5 3 -10 15 -10 12 0 18 5 15 10 -3 6 -10 10 -15 10
-5 0 -12 -4 -15 -10z"/>
<path d="M3643 1355 c-3 -9 -3 -18 0 -21 7 -8 47 15 47 26 0 16 -40 11 -47 -5z"/>
<path d="M3605 1310 c3 -5 13 -10 21 -10 8 0 14 5 14 10 0 6 -9 10 -21 10 -11
0 -17 -4 -14 -10z"/>
<path d="M3670 1310 c0 -5 5 -10 10 -10 6 0 10 5 10 10 0 6 -4 10 -10 10 -5 0
-10 -4 -10 -10z"/>
<path d="M3840 1370 c0 -5 5 -10 10 -10 6 0 10 5 10 10 0 6 -4 10 -10 10 -5 0
-10 -4 -10 -10z"/>
<path d="M4280 1534 c0 -8 5 -12 10 -9 6 3 10 10 10 16 0 5 -4 9 -10 9 -5 0
-10 -7 -10 -16z"/>
<path d="M4200 1441 c0 -6 5 -13 10 -16 6 -3 10 1 10 9 0 9 -4 16 -10 16 -5 0
-10 -4 -10 -9z"/>
<path d="M4917 1954 c-13 -13 -7 -24 14 -24 11 0 19 5 17 12 -5 14 -22 21 -31
12z"/>
<path d="M4908 1493 c-10 -2 -18 -13 -18 -24 0 -23 15 -17 30 12 6 10 9 18 8
18 -2 -1 -11 -3 -20 -6z"/>
<path d="M4921 1324 c0 -11 3 -14 6 -6 3 7 2 16 -1 19 -3 4 -6 -2 -5 -13z"/>
<path d="M4885 1310 c3 -5 8 -10 11 -10 2 0 4 5 4 10 0 6 -5 10 -11 10 -5 0
-7 -4 -4 -10z"/>
<path d="M5214 1340 c0 -22 7 -23 55 -14 43 9 40 28 -4 21 -19 -3 -35 -2 -35
4 0 5 -4 9 -8 9 -4 0 -8 -9 -8 -20z"/>
<path d="M5100 1324 c0 -8 5 -12 10 -9 6 4 8 11 5 16 -9 14 -15 11 -15 -7z"/>
<path d="M5145 1320 c3 -5 8 -10 11 -10 2 0 4 5 4 10 0 6 -5 10 -11 10 -5 0
-7 -4 -4 -10z"/>
<path d="M2130 2070 c-19 -19 -20 -33 -20 -425 l0 -406 26 -24 c25 -23 34 -25
139 -25 108 0 113 1 139 26 20 21 26 37 26 70 0 23 5 46 11 50 6 4 43 -27 85
-71 l74 -78 -25 -42 c-182 -311 -530 -465 -860 -380 -33 8 -103 36 -155 62
-82 40 -108 60 -190 142 -75 76 -104 114 -138 179 -23 46 -42 89 -42 96 0 7
26 20 58 30 32 9 81 34 109 56 l52 39 27 -47 c15 -26 44 -70 65 -98 50 -65 50
-81 -1 -101 -33 -13 -40 -21 -40 -44 0 -35 24 -59 59 -59 38 0 53 20 45 60 -7
32 5 50 34 50 23 0 62 -48 62 -78 0 -34 16 -52 46 -52 52 0 58 63 9 90 -35 19
-51 56 -41 93 8 33 45 44 86 27 36 -15 60 -1 60 34 0 46 -44 61 -76 25 -43
-48 -84 -47 -84 2 0 19 8 34 25 45 48 31 21 99 -30 76 -20 -9 -25 -19 -25 -51
0 -44 -32 -93 -49 -76 -5 6 -26 60 -46 120 -47 141 -56 155 -98 154 l-32 -2
30 -4 c17 -3 34 -8 38 -13 5 -4 -3 -5 -17 -3 -14 3 -48 -2 -75 -11 -28 -9 -60
-16 -72 -16 -19 0 -111 -35 -161 -61 -10 -5 -24 -9 -32 -9 -8 0 -17 -8 -20
-17 -3 -10 -4 23 -1 72 5 112 40 228 94 313 22 33 35 59 28 57 -7 -3 -21 7
-32 21 -43 56 -87 95 -101 90 -8 -3 -13 -2 -11 2 3 4 -1 13 -8 19 -11 10 -19
6 -41 -20 -25 -29 -25 -30 -9 -3 9 16 12 25 6 22 -20 -12 -59 -90 -79 -156
-11 -36 -23 -109 -27 -162 -5 -67 -11 -98 -20 -98 -6 0 -40 14 -75 31 -77 39
-144 49 -154 24 -3 -10 1 -85 10 -167 14 -126 14 -152 3 -159 -22 -14 -52 -10
-87 11 -36 22 -43 61 -17 96 20 26 19 58 -3 77 -22 20 -43 22 -60 5 -16 -16
-15 -42 5 -97 20 -57 12 -101 -18 -101 -41 0 -76 28 -83 65 -6 32 -10 35 -40
35 -53 0 -81 -44 -56 -89 13 -25 64 -45 96 -37 30 8 54 -8 54 -36 0 -25 -23
-32 -62 -19 -59 21 -106 -41 -60 -81 38 -34 102 -34 102 0 0 50 55 78 95 48
17 -13 17 -15 -9 -49 -23 -29 -25 -39 -16 -56 19 -36 45 -43 74 -20 30 24 33
47 10 91 -16 31 -16 33 6 50 27 22 43 22 103 2 44 -15 49 -15 73 1 26 17 26
17 19 116 -4 54 -4 99 -1 99 3 0 32 -21 63 -46 31 -25 66 -51 79 -56 17 -8 29
-30 44 -76 69 -211 224 -400 421 -511 273 -154 636 -151 904 7 60 36 190 135
202 156 4 6 -8 -2 -26 -17 -28 -23 -36 -26 -49 -15 -13 11 -14 11 -7 -1 5 -10
4 -12 -4 -7 -8 5 9 30 51 74 112 120 186 252 229 412 18 67 23 111 23 210 -1
147 -22 238 -84 364 -49 100 -74 134 -85 116 -5 -8 -4 -11 2 -7 5 3 10 0 10
-8 0 -8 14 -45 31 -83 l32 -68 -81 -82 -81 -81 28 -34 c16 -19 62 -74 103
-121 l74 -87 -17 -66 c-9 -37 -20 -71 -24 -75 -5 -5 -46 35 -93 89 -46 54 -86
100 -89 103 -3 3 -22 26 -43 51 -37 45 -37 47 -37 136 l0 89 88 93 c48 52 91
100 95 108 6 9 -1 26 -18 49 l-27 36 -35 -36 c-43 -43 -53 -45 -53 -7 0 16
-10 39 -25 55 -23 25 -27 26 -145 26 -107 0 -122 -2 -140 -20z m220 -425 l0
-365 -80 0 -80 0 0 365 0 365 80 0 80 0 0 -365z m346 0 l7 -70 -36 45 c-20 24
-33 49 -29 55 45 68 48 66 58 -30z m-236 -819 c0 -2 -8 -10 -17 -17 -16 -13
-17 -12 -4 4 13 16 21 21 21 13z"/>
<path d="M2601 2073 c47 -62 48 -63 135 -63 l83 0 -55 -51 c-30 -29 -54 -57
-54 -63 0 -6 10 -31 21 -56 l20 -44 53 54 c72 76 106 123 106 149 0 30 -25 77
-45 85 -9 3 -75 6 -147 6 -123 0 -130 -1 -117 -17z"/>
<path d="M5412 2083 c-50 -20 -74 -221 -32 -263 22 -22 45 -29 115 -32 l50 -3
2 -260 c4 -343 -1 -334 169 -335 104 0 113 2 138 25 l26 24 0 258 c0 142 4
264 9 272 6 9 32 16 69 19 l59 4 17 -43 c10 -23 49 -128 87 -233 127 -348 110
-326 249 -326 103 0 142 14 158 57 283 773 282 770 246 818 -13 17 -29 20
-115 23 -55 2 -115 1 -133 -2 -38 -7 -42 -14 -93 -161 -19 -55 -41 -111 -48
-125 l-13 -25 -12 30 c-7 17 -27 71 -45 121 -44 122 -60 150 -87 158 -28 7
-797 7 -816 -1z m305 -99 c-4 -22 -1 -25 15 -21 14 4 18 2 14 -9 -3 -8 -9 -21
-12 -29 -9 -22 13 -18 37 6 24 24 21 52 -6 57 -50 9 -34 22 28 22 67 0 80 -7
52 -30 -10 -9 -15 -9 -15 -1 0 6 -5 11 -11 11 -6 0 -9 -6 -6 -14 6 -15 -35
-66 -52 -66 -6 0 -8 -7 -5 -15 5 -11 -1 -15 -23 -15 -16 0 -34 5 -41 12 -9 9
-15 9 -24 0 -15 -15 -98 -16 -98 -1 0 6 -6 9 -14 6 -14 -6 -56 26 -56 42 0 5
9 7 20 4 27 -7 25 6 -7 39 l-27 28 118 0 118 0 -5 -26z m203 5 c0 -14 -37 -10
-43 4 -4 10 2 13 19 9 13 -2 24 -8 24 -13z m198 14 c-3 -8 5 -13 23 -13 5 0 7
5 4 10 -3 6 4 10 17 10 21 0 29 -14 71 -132 27 -73 62 -169 79 -213 24 -63 31
-98 33 -168 2 -77 0 -89 -16 -98 -25 -13 -24 -29 1 -29 17 0 20 -7 20 -45 0
-40 -2 -45 -22 -45 -20 0 -30 19 -86 173 -35 94 -70 189 -78 210 -61 159 -124
332 -124 340 0 4 18 7 40 7 22 0 39 -3 38 -7z m467 -2 c-3 -5 -1 -12 5 -16 5
-3 10 1 10 9 0 12 11 16 50 16 28 0 50 -3 50 -7 0 -9 -126 -353 -146 -400 -8
-17 -14 -36 -14 -42 0 -6 -4 -19 -9 -29 -5 -9 -29 -70 -52 -134 -33 -92 -46
-118 -60 -118 -15 0 -17 5 -12 30 3 17 1 30 -4 30 -5 0 -10 44 -12 98 -2 106
-7 86 112 424 52 146 53 148 73 148 8 0 13 -4 9 -9z m-632 -41 c-4 -16 -2 -19
11 -14 17 7 20 -5 10 -43 -6 -22 -12 -23 -90 -23 -46 0 -84 3 -84 8 1 23 14
51 27 56 8 3 11 1 8 -4 -3 -6 -2 -10 4 -10 6 0 15 9 21 20 11 21 11 21 31 -2
l20 -23 21 28 c26 32 28 33 21 7z m-469 -50 c8 0 19 -7 26 -15 11 -13 7 -15
-29 -15 -38 0 -53 11 -31 25 5 3 7 13 4 23 -5 16 -5 16 6 0 6 -10 17 -18 24
-18z m291 -96 c10 -14 14 -49 15 -124 0 -128 -5 -149 -31 -143 -21 6 -24 -4
-9 -27 6 -9 5 -17 -3 -23 -7 -4 0 -5 16 -1 26 6 27 4 27 -30 0 -22 -5 -36 -12
-37 -10 0 -10 -2 0 -6 8 -3 12 -28 12 -74 l0 -69 -75 0 -75 0 0 135 c0 113 2
135 15 135 8 0 15 6 15 13 0 8 3 8 8 1 12 -17 39 -23 51 -11 15 15 14 30 -3
24 -8 -3 -16 2 -19 14 -6 22 -47 26 -47 5 0 -8 -4 -18 -10 -21 -18 -11 -11 14
10 35 25 25 25 30 -2 31 -18 1 -19 2 -5 6 21 5 18 28 -4 28 -17 0 -24 32 -10
49 7 8 7 23 1 45 -11 39 -3 63 19 57 9 -3 22 -2 30 3 22 14 71 5 86 -15z"/>
<path d="M5625 1909 c-10 -15 3 -25 16 -12 7 7 7 13 1 17 -6 3 -14 1 -17 -5z"/>
<path d="M6266 1635 c4 -8 8 -15 10 -15 2 0 4 7 4 15 0 8 -4 15 -10 15 -5 0
-7 -7 -4 -15z"/>
<path d="M6230 1583 c0 -4 7 -17 16 -28 13 -17 16 -18 24 -5 5 8 8 20 7 25 -4
12 -47 20 -47 8z"/>
<path d="M6315 1480 c-3 -5 -1 -10 4 -10 6 0 11 5 11 10 0 6 -2 10 -4 10 -3 0
-8 -4 -11 -10z"/>
<path d="M6275 1450 c-3 -5 1 -10 9 -10 9 0 16 5 16 10 0 6 -4 10 -9 10 -6 0
-13 -4 -16 -10z"/>
<path d="M6310 1340 c0 -5 5 -10 10 -10 6 0 10 5 10 10 0 6 -4 10 -10 10 -5 0
-10 -4 -10 -10z"/>
<path d="M6640 1980 c-8 -5 -11 -12 -7 -16 4 -4 13 -2 19 4 15 15 7 24 -12 12z"/>
<path d="M6540 1870 c0 -5 5 -10 10 -10 6 0 10 5 10 10 0 6 -4 10 -10 10 -5 0
-10 -4 -10 -10z"/>
<path d="M6570 1815 c0 -8 5 -15 10 -15 6 0 10 7 10 15 0 8 -4 15 -10 15 -5 0
-10 -7 -10 -15z"/>
<path d="M6513 1763 c4 -3 0 -11 -8 -17 -10 -8 -12 -16 -5 -26 8 -13 11 -13
26 2 18 17 13 48 -7 48 -7 0 -9 -3 -6 -7z"/>
<path d="M6530 1670 c0 -19 3 -21 12 -12 9 9 9 15 0 24 -9 9 -12 7 -12 -12z"/>
<path d="M5862 1918 c6 -17 38 -23 38 -8 0 6 -4 8 -10 5 -5 -3 -10 -1 -10 4 0
6 -5 11 -11 11 -6 0 -9 -6 -7 -12z"/>
<path d="M5697 1663 c-12 -11 -8 -21 13 -26 17 -4 18 -2 9 14 -11 21 -13 22
-22 12z"/>
<path d="M1064 2018 l-29 -33 33 29 c30 28 37 36 29 36 -2 0 -16 -15 -33 -32z"/>
<path d="M1811 1755 c-1 -25 17 -45 39 -44 10 0 9 3 -5 8 -11 4 -23 19 -26 32
-6 21 -7 21 -8 4z"/>
<path d="M1948 1753 c32 -6 27 -18 -8 -19 -19 -1 -27 3 -23 10 3 6 2 7 -3 3
-12 -12 -12 -30 1 -40 6 -5 0 -6 -14 -3 -13 3 -34 0 -45 -7 -12 -6 -31 -10
-43 -8 -11 1 -24 -3 -28 -8 -3 -6 -15 -11 -26 -11 -11 0 -19 -7 -19 -16 0 -8
-4 -13 -9 -10 -5 4 -7 -2 -5 -12 3 -10 -7 -29 -25 -46 -48 -46 -37 -116 17
-116 40 0 52 17 52 71 0 40 3 49 22 55 17 5 27 0 44 -22 64 -82 91 -93 119
-50 25 37 5 66 -43 66 -46 0 -82 24 -82 54 0 39 22 49 90 41 51 -6 61 -4 66
10 11 27 -12 65 -38 64 l-23 -2 23 -4z m-125 -93 c-3 -12 -8 -19 -11 -16 -5 6
5 36 12 36 2 0 2 -9 -1 -20z"/>
<path d="M1603 1683 c9 -2 23 -2 30 0 6 3 -1 5 -18 5 -16 0 -22 -2 -12 -5z"/>
<path d="M1318 1503 c6 -2 18 -2 25 0 6 3 1 5 -13 5 -14 0 -19 -2 -12 -5z"/>
</g>
</svg>
